<svg width="500" height="500" viewBox="0 0 500 500" fill="none" xmlns="http://www.w3.org/2000/svg">
<rect width="500" height="500" fill="#FBD109"/>
<path d="M273.629 289.725L317.114 325.689C322.563 330.267 325.941 333.754 327.249 336.152C328.775 338.549 329.538 340.838 329.538 343.018C329.538 348.249 326.159 355.333 319.402 364.269C311.991 373.424 305.452 378.001 299.785 378.001C294.99 378.001 288.342 374.841 279.841 368.52L276.572 366.231C271.559 362.09 263.821 354.897 253.358 344.652C242.896 334.19 234.94 326.779 229.491 322.42V347.595C229.491 352.608 229.273 356.422 228.837 359.038C228.619 361.436 227.638 364.269 225.895 367.539C223.061 373.206 214.669 376.039 200.72 376.039C186.988 376.039 178.596 373.097 175.544 367.212C174.019 363.942 173.038 361.109 172.602 358.711C172.384 356.096 172.275 352.281 172.275 347.268V151.425C172.275 146.412 172.384 142.706 172.602 140.309C173.038 137.693 174.019 134.751 175.544 131.481C178.596 125.596 187.097 122.654 201.046 122.654C211.509 122.654 218.92 124.506 223.279 128.212C226.984 131.263 228.946 136.058 229.164 142.597C229.382 144.559 229.491 147.611 229.491 151.752V255.395C233.414 252.126 239.3 246.567 247.146 238.721C255.211 230.874 261.205 225.316 265.129 222.046L269.052 219.431C276.681 213.546 283.22 210.603 288.669 210.603C294.118 210.603 300.33 215.071 307.305 224.008C314.498 232.727 318.094 239.592 318.094 244.606C318.094 249.619 314.062 255.504 305.997 262.261L273.629 289.725Z" fill="#252525"/>
</svg>
