<svg width="32" height="32" viewBox="0 0 32 32" fill="none" xmlns="http://www.w3.org/2000/svg">
    <rect width="32" height="32" rx="10" fill="#FBD109" />
    <path
        d="M17.9042 19.2012L21.4083 22.0993C21.8474 22.4681 22.1196 22.7492 22.225 22.9424C22.348 23.1356 22.4094 23.32 22.4094 23.4956C22.4094 23.9172 22.1372 24.488 21.5927 25.2082C20.9955 25.9459 20.4686 26.3147 20.0119 26.3147C19.6255 26.3147 19.0898 26.06 18.4048 25.5507L18.1413 25.3662C17.7373 25.0325 17.1138 24.4529 16.2707 23.6274C15.4276 22.7843 14.7865 22.1871 14.3474 21.8358V23.8645C14.3474 24.2685 14.3299 24.5759 14.2947 24.7866C14.2772 24.9798 14.1981 25.2082 14.0576 25.4716C13.8293 25.9283 13.1531 26.1566 12.029 26.1566C10.9224 26.1566 10.2462 25.9195 10.0003 25.4453C9.87733 25.1818 9.79829 24.9535 9.76316 24.7603C9.7456 24.5495 9.73682 24.2421 9.73682 23.8382V8.05664C9.73682 7.65267 9.7456 7.35407 9.76316 7.16087C9.79829 6.95009 9.87733 6.71298 10.0003 6.44951C10.2462 5.97528 10.9312 5.73816 12.0553 5.73816C12.8984 5.73816 13.4956 5.88746 13.8469 6.18605C14.1455 6.43195 14.3035 6.81836 14.3211 7.34529C14.3387 7.50337 14.3474 7.74927 14.3474 8.08299V16.4348C14.6636 16.1713 15.1378 15.7235 15.7701 15.0911C16.42 14.4588 16.903 14.0109 17.2192 13.7475L17.5354 13.5367C18.1501 13.0625 18.677 12.8253 19.1161 12.8253C19.5553 12.8253 20.0558 13.1854 20.6179 13.9055C21.1975 14.6081 21.4873 15.1614 21.4873 15.5654C21.4873 15.9694 21.1624 16.4436 20.5125 16.9881L17.9042 19.2012Z"
        fill="#252525" />
</svg>