<svg width="1500" height="500" viewBox="0 0 1500 500" fill="none" xmlns="http://www.w3.org/2000/svg">
    <rect width="1500" height="500" fill="#FBD109" />
    <path
        d="M818.025 238.576C823.327 238.576 827.728 240.591 831.228 244.62C834.78 248.65 836.556 253.581 836.556 259.413V273.411C836.556 274.63 836.503 275.558 836.397 276.194C836.344 276.777 836.105 277.467 835.681 278.262C834.992 279.64 832.951 280.33 829.557 280.33C826.323 280.33 824.308 279.64 823.513 278.262C823.089 277.467 822.824 276.751 822.718 276.115C822.665 275.478 822.638 274.524 822.638 273.251V259.334C822.638 257.16 822.028 255.463 820.809 254.244C819.589 253.024 818.025 252.414 816.117 252.414C814.261 252.414 812.617 252.998 811.186 254.164C809.754 255.277 808.932 256.55 808.72 257.981V273.411C808.72 274.63 808.667 275.558 808.561 276.194C808.508 276.777 808.27 277.467 807.845 278.262C807.156 279.64 805.115 280.33 801.721 280.33C798.381 280.33 796.34 279.614 795.598 278.182C795.226 277.387 794.988 276.698 794.882 276.115C794.829 275.531 794.802 274.603 794.802 273.331V225.771C794.802 224.552 794.829 223.651 794.882 223.067C794.988 222.431 795.226 221.742 795.598 221C796.34 219.568 798.408 218.852 801.801 218.852C805.141 218.852 807.156 219.568 807.845 221C808.27 221.795 808.508 222.511 808.561 223.147C808.667 223.73 808.72 224.631 808.72 225.851V243.427C811.371 240.193 814.473 238.576 818.025 238.576Z"
        fill="#252525" />
    <path
        d="M754.619 276.592C753.611 275.955 753.107 274.948 753.107 273.57C753.107 272.191 754.115 270.097 756.13 267.287C756.713 266.385 757.641 265.935 758.913 265.935C760.239 265.935 762.015 266.597 764.242 267.923C766.469 269.195 768.483 269.832 770.286 269.832C773.52 269.832 775.138 269.195 775.138 267.923C775.138 266.915 773.361 266.173 769.809 265.696C766.469 265.219 763.155 263.973 759.868 261.958C758.33 261.004 757.057 259.519 756.05 257.504C755.043 255.436 754.539 252.997 754.539 250.187C754.539 241.81 760.292 237.621 771.797 237.621C775.562 237.621 779.432 238.523 783.409 240.326C785.265 241.174 786.192 242.234 786.192 243.507C786.192 244.779 785.609 246.343 784.443 248.199C783.276 250.055 782.083 250.983 780.864 250.983C780.228 250.983 779.035 250.585 777.285 249.79C775.588 248.994 773.732 248.597 771.718 248.597C768.589 248.597 767.025 249.18 767.025 250.346C767.025 251.937 768.828 252.971 772.433 253.448C775.933 253.819 779.326 254.827 782.613 256.47C784.151 257.213 785.424 258.512 786.431 260.367C787.491 262.17 788.022 264.45 788.022 267.207C788.022 269.964 787.491 272.324 786.431 274.285C785.424 276.194 783.992 277.626 782.136 278.58C778.743 280.224 774.475 281.045 769.332 281.045C764.242 281.045 759.337 279.561 754.619 276.592Z"
        fill="#252525" />
    <path
        d="M732.532 242.871C732.85 239.901 734.945 238.417 738.815 238.417C740.883 238.417 742.421 238.576 743.428 238.894C744.435 239.212 745.125 239.769 745.496 240.564C745.92 241.36 746.159 242.075 746.212 242.712C746.318 243.295 746.371 244.196 746.371 245.416V273.252C746.371 274.471 746.318 275.399 746.212 276.035C746.159 276.618 745.947 277.308 745.575 278.103C744.833 279.481 743.004 280.171 740.088 280.171C737.225 280.171 735.289 279.826 734.282 279.137C733.328 278.395 732.771 277.334 732.612 275.956C730.65 278.766 727.363 280.171 722.75 280.171C718.19 280.171 713.948 278.076 710.025 273.888C706.101 269.699 704.14 264.848 704.14 259.334C704.14 253.766 706.101 248.915 710.025 244.779C714.002 240.591 718.349 238.496 723.068 238.496C724.871 238.496 726.514 238.815 727.999 239.451C729.484 240.087 730.517 240.697 731.101 241.28C731.684 241.81 732.161 242.34 732.532 242.871ZM718.058 259.413C718.058 261.163 718.747 262.753 720.125 264.185C721.504 265.563 723.174 266.253 725.136 266.253C727.098 266.253 728.715 265.537 729.987 264.105C731.313 262.674 731.976 261.11 731.976 259.413C731.976 257.663 731.339 256.046 730.067 254.562C728.847 253.077 727.177 252.335 725.056 252.335C722.989 252.335 721.292 253.077 719.966 254.562C718.694 256.046 718.058 257.663 718.058 259.413Z"
        fill="#252525" />
    <path
        d="M688.165 259.334L698.743 268.082C700.069 269.195 700.89 270.044 701.208 270.627C701.58 271.21 701.765 271.767 701.765 272.297C701.765 273.57 700.943 275.293 699.3 277.467C697.497 279.693 695.906 280.807 694.528 280.807C693.361 280.807 691.744 280.038 689.676 278.501L688.881 277.944C687.662 276.936 685.779 275.187 683.234 272.695C680.689 270.15 678.754 268.347 677.429 267.287V273.411C677.429 274.63 677.376 275.558 677.27 276.194C677.217 276.777 676.978 277.467 676.554 278.262C675.865 279.64 673.823 280.33 670.43 280.33C667.09 280.33 665.048 279.614 664.306 278.182C663.935 277.387 663.696 276.698 663.59 276.115C663.537 275.478 663.511 274.55 663.511 273.331V225.692C663.511 224.472 663.537 223.571 663.59 222.988C663.696 222.352 663.935 221.636 664.306 220.84C665.048 219.409 667.116 218.693 670.509 218.693C673.054 218.693 674.857 219.144 675.918 220.045C676.819 220.787 677.296 221.954 677.349 223.545C677.402 224.022 677.429 224.764 677.429 225.771V250.983C678.383 250.187 679.815 248.835 681.723 246.927C683.685 245.018 685.143 243.666 686.098 242.871L687.052 242.234C688.908 240.803 690.498 240.087 691.824 240.087C693.149 240.087 694.66 241.174 696.357 243.348C698.107 245.469 698.982 247.139 698.982 248.358C698.982 249.578 698.001 251.009 696.039 252.653L688.165 259.334Z"
        fill="#252525" />
</svg>