<svg width="177" height="24" viewBox="0 0 177 24" fill="none" xmlns="http://www.w3.org/2000/svg">
    <rect width="24" height="24" rx="7.5" fill="#FBD109" />
    <path
        d="M13.4283 14.4009L16.0563 16.5744C16.3857 16.8511 16.5899 17.0618 16.6689 17.2068C16.7611 17.3517 16.8072 17.49 16.8072 17.6217C16.8072 17.9379 16.603 18.366 16.1947 18.9061C15.7468 19.4594 15.3516 19.736 15.0091 19.736C14.7193 19.736 14.3175 19.545 13.8037 19.163L13.6061 19.0247C13.3031 18.7744 12.8355 18.3396 12.2032 17.7205C11.5709 17.0882 11.09 16.6403 10.7607 16.3768V17.8983C10.7607 18.2013 10.7475 18.4319 10.7212 18.5899C10.708 18.7348 10.6487 18.9061 10.5433 19.1037C10.3721 19.4462 9.86492 19.6175 9.02184 19.6175C8.19193 19.6175 7.68476 19.4396 7.50033 19.0839C7.40812 18.8863 7.34884 18.7151 7.32249 18.5702C7.30932 18.4121 7.30273 18.1816 7.30273 17.8786V6.04245C7.30273 5.73947 7.30932 5.51552 7.32249 5.37062C7.34884 5.21254 7.40812 5.0347 7.50033 4.8371C7.68476 4.48143 8.19851 4.30359 9.0416 4.30359C9.67391 4.30359 10.1218 4.41556 10.3853 4.63951C10.6092 4.82393 10.7278 5.11374 10.7409 5.50894C10.7541 5.6275 10.7607 5.81192 10.7607 6.06221V12.3261C10.9978 12.1285 11.3535 11.7926 11.8277 11.3183C12.3151 10.8441 12.6774 10.5082 12.9145 10.3106L13.1516 10.1525C13.6127 9.79682 14.0079 9.61898 14.3372 9.61898C14.6666 9.61898 15.042 9.88903 15.4635 10.4291C15.8983 10.9561 16.1156 11.371 16.1156 11.674C16.1156 11.977 15.8719 12.3327 15.3845 12.741L13.4283 14.4009Z"
        fill="#252525" />
</svg>